<?xml version="1.0" encoding="UTF-8"?>
<svg version="1.1" xmlns="http://www.w3.org/2000/svg" width="500" height="500">
<path d="M0 0 C7.59 0 15.18 0 23 0 C23.33 11.55 23.66 23.1 24 35 C26.74144675 30.05230519 26.74144675 30.05230519 29.47338867 25.09936523 C32.04543748 20.49245654 34.89256078 16.26296938 38 12 C39.90727351 8.85080079 41.69947919 5.67445876 43.19921875 2.30859375 C45 0 45 0 48.13671875 -0.48828125 C49.89435547 -0.40126953 49.89435547 -0.40126953 51.6875 -0.3125 C52.86699219 -0.26738281 54.04648438 -0.22226563 55.26171875 -0.17578125 C56.61716797 -0.08876953 56.61716797 -0.08876953 58 0 C57.51730245 3.81867395 57.06113128 6.48805587 54.625 9.5 C52.31017475 12.52911419 50.65541303 15.55122285 49 19 C48.56171875 19.72574219 48.1234375 20.45148438 47.671875 21.19921875 C47.20265625 21.97910156 46.7334375 22.75898438 46.25 23.5625 C45.80140625 24.28566406 45.3528125 25.00882813 44.890625 25.75390625 C43.74618138 28.64011275 44.20679014 30.02311705 45 33 C46.01995402 35.21534104 46.01995402 35.21534104 47.3359375 37.37890625 C47.81828857 38.20849854 48.30063965 39.03809082 48.79760742 39.89282227 C49.31814697 40.77381592 49.83868652 41.65480957 50.375 42.5625 C51.46351832 44.43675793 52.55072411 46.31177866 53.63671875 48.1875 C54.47082275 49.62416016 54.47082275 49.62416016 55.32177734 51.08984375 C57.99226103 55.72065049 60.59908404 60.38543746 63.1875 65.0625 C63.89108643 66.31945679 63.89108643 66.31945679 64.60888672 67.60180664 C65.04088379 68.38418701 65.47288086 69.16656738 65.91796875 69.97265625 C66.29719482 70.65593994 66.6764209 71.33922363 67.06713867 72.04321289 C68.01620201 74.03398564 68.6310019 75.82616448 69 78 C68 79 68 79 65.59155273 79.11352539 C64.54942627 79.10828857 63.5072998 79.10305176 62.43359375 79.09765625 C61.30888672 79.09443359 60.18417969 79.09121094 59.02539062 79.08789062 C57.84138672 79.07951172 56.65738281 79.07113281 55.4375 79.0625 C54.24962891 79.05798828 53.06175781 79.05347656 51.83789062 79.04882812 C48.89187774 79.03699675 45.94596319 79.02051287 43 79 C42.16180842 77.37750059 41.3295884 75.75191503 40.5 74.125 C40.0359375 73.22007812 39.571875 72.31515625 39.09375 71.3828125 C38 69 38 69 38 67 C37.34 67 36.68 67 36 67 C35.60167969 66.19175781 35.20335937 65.38351562 34.79296875 64.55078125 C34.26316406 63.48214844 33.73335937 62.41351563 33.1875 61.3125 C32.40439453 59.72888672 32.40439453 59.72888672 31.60546875 58.11328125 C30.62192024 56.20601079 29.59235705 54.32059508 28.48828125 52.48046875 C26.84276132 49.73793553 25.43033033 46.86066067 24 44 C23.67 55.55 23.34 67.1 23 79 C15.41 79 7.82 79 0 79 C0 52.93 0 26.86 0 0 Z " fill="#28272D" transform="translate(63,220)"/>
<path d="M0 0 C3.59653645 3.03381306 6.6791067 5.77739169 7.37109375 10.5703125 C7 13 7 13 5.64453125 14.6171875 C0.79853686 17.94428813 0.79853686 17.94428813 -2.6875 18.1875 C-5.93252647 16.52113506 -7.07396866 14.04437211 -9 11 C-12.40301272 8.41840414 -15.84688583 8.69795533 -20 9 C-23.25088039 10.69792816 -23.25088039 10.69792816 -23.8125 13.875 C-24.01268848 17.21147468 -23.77878455 18.26391605 -22 21 C-20.26397138 22.14918512 -20.26397138 22.14918512 -18.18359375 22.89453125 C-17.42320801 23.20640381 -16.66282227 23.51827637 -15.87939453 23.83959961 C-14.67065674 24.3211853 -14.67065674 24.3211853 -13.4375 24.8125 C3.14411434 31.84618182 3.14411434 31.84618182 7.5625 40.125 C10.2755953 47.45160757 10.26719709 55.76400713 7.3125 63 C4.27103784 68.83747299 -0.22921007 72.90087208 -6 76 C-16.57859962 79.19418755 -27.89332522 78.48470282 -38 74 C-38.99 73.34 -39.98 72.68 -41 72 C-41 71.34 -41 70.68 -41 70 C-41.8971875 69.62875 -41.8971875 69.62875 -42.8125 69.25 C-45.39231944 67.77581746 -46.5815864 66.61286717 -48 64 C-48.1875 61.5625 -48.1875 61.5625 -47 59 C-43.0769191 55.73670998 -40.16424865 54 -35 54 C-32.71117081 56.94278039 -31.17960932 59.46117205 -30 63 C-28.41870971 63.22331199 -26.83478911 63.42804644 -25.25 63.625 C-23.92742187 63.79902344 -23.92742187 63.79902344 -22.578125 63.9765625 C-19.71265767 64.0026122 -18.32513923 63.65856433 -16 62 C-15.03524064 58.5268663 -14.49186527 56.1856477 -15.9375 52.8125 C-19.61623878 49.57966895 -24.02256687 47.85057563 -28.48828125 45.9296875 C-29.70064453 45.40761719 -29.70064453 45.40761719 -30.9375 44.875 C-31.68902344 44.56304687 -32.44054687 44.25109375 -33.21484375 43.9296875 C-35 43 -35 43 -36 41 C-36.7425 40.79375 -37.485 40.5875 -38.25 40.375 C-43.07296751 37.96351624 -45.3378542 32.9864374 -47 28 C-47.70781782 18.0497149 -47.11980925 10.69660033 -40.9375 2.75 C-30.38390236 -8.39600333 -12.44405423 -7.74959066 0 0 Z " fill="#121218" transform="translate(246,223)"/>
<path d="M0 0 C1.02637573 0.00326294 1.02637573 0.00326294 2.07348633 0.0065918 C4.1302767 0.00971725 6.18557879 -0.01357451 8.2421875 -0.0390625 C17.09124916 -0.04339815 24.96717722 0.20553801 32.09960938 5.88476562 C35.60332893 9.78751991 35.83088107 14.25080776 35.59960938 19.32226562 C34.70990176 23.32594991 33.39420651 26.2947854 30.59960938 29.32226562 C29.93960938 29.32226562 29.27960938 29.32226562 28.59960938 29.32226562 C28.59960938 29.98226563 28.59960938 30.64226562 28.59960938 31.32226562 C27.27960938 31.65226562 25.95960938 31.98226563 24.59960938 32.32226562 C25.49496194 33.96836055 26.39092336 35.61412431 27.28710938 37.25976562 C27.82851563 38.25878906 28.36992187 39.2578125 28.92773438 40.28710938 C29.97548239 42.18921267 31.04520501 44.07955316 32.14648438 45.95117188 C32.83484375 47.12486328 32.83484375 47.12486328 33.53710938 48.32226562 C34.16939453 49.37414062 34.16939453 49.37414062 34.81445312 50.44726562 C35.59960938 52.32226562 35.59960938 52.32226562 34.59960938 55.32226562 C22.85363931 56.74922262 22.85363931 56.74922262 17.59960938 55.32226562 C12.34153105 50.44363625 10.51893512 44.27989001 9.59960938 37.32226562 C8.93960937 37.32226562 8.27960938 37.32226562 7.59960938 37.32226562 C6.93960937 35.67226563 6.27960938 34.02226562 5.59960938 32.32226562 C5.26960938 39.91226563 4.93960937 47.50226563 4.59960938 55.32226562 C-0.68039062 55.32226562 -5.96039063 55.32226562 -11.40039062 55.32226562 C-12.63507788 52.85289112 -12.53389935 51.20699404 -12.5456543 48.4453125 C-12.55203415 47.4308606 -12.558414 46.41640869 -12.56498718 45.37121582 C-12.56610001 44.27224976 -12.56721283 43.17328369 -12.56835938 42.04101562 C-12.57168777 40.91659058 -12.57501617 39.79216553 -12.57844543 38.63366699 C-12.58351474 36.25301524 -12.58585376 33.87235636 -12.58569336 31.49169922 C-12.58788153 27.83744699 -12.60604209 24.18349571 -12.625 20.52929688 C-12.6279335 18.22070416 -12.62991859 15.91211001 -12.63085938 13.60351562 C-12.63804489 12.50454956 -12.64523041 11.4055835 -12.65263367 10.27331543 C-12.64955704 9.25886353 -12.64648041 8.24441162 -12.64331055 7.19921875 C-12.64473557 6.30368286 -12.64616058 5.40814697 -12.64762878 4.48547363 C-11.93073276 -1.78700153 -4.74916771 0.02577249 0 0 Z M5.59960938 8.32226562 C4.15572366 9.53655551 4.15572366 9.53655551 4.50195312 13.13867188 C4.50862849 14.72073244 4.52059062 16.30277721 4.53710938 17.88476562 C4.54162109 18.69107422 4.54613281 19.49738281 4.55078125 20.328125 C4.5626042 22.32620319 4.58054023 24.32424345 4.59960938 26.32226562 C6.20480941 26.26203298 7.80895265 26.17317964 9.41210938 26.07226562 C10.30542969 26.02585937 11.19875 25.97945313 12.11914062 25.93164062 C14.71675045 25.52458217 14.71675045 25.52458217 16.39257812 23.49023438 C18.2093839 20.22703953 18.11440344 17.99017335 17.59960938 14.32226562 C14.92313302 10.5914198 13.33923044 9.49484387 8.84960938 8.44726562 C7.24085938 8.38539063 7.24085938 8.38539063 5.59960938 8.32226562 Z " fill="#0C0B11" transform="translate(369.400390625,243.677734375)"/>
<path d="M0 0 C1.07507813 -0.00128906 2.15015625 -0.00257813 3.2578125 -0.00390625 C4.3921875 -0.00003906 5.5265625 0.00382813 6.6953125 0.0078125 C8.33886719 0.00201172 8.33886719 0.00201172 10.015625 -0.00390625 C31.05062942 0.02101674 31.05062942 0.02101674 35.8203125 4.1328125 C35.8203125 4.7928125 35.8203125 5.4528125 35.8203125 6.1328125 C36.7484375 6.473125 36.7484375 6.473125 37.6953125 6.8203125 C40.58090121 8.60258788 40.96703726 9.86192408 41.8203125 13.1328125 C42.41840782 18.31630529 42.13716339 21.90096826 38.8203125 26.1328125 C36.3828125 28.9453125 36.3828125 28.9453125 33.8203125 31.1328125 C32.5003125 31.1328125 31.1803125 31.1328125 29.8203125 31.1328125 C30.19542969 31.75027344 30.57054687 32.36773437 30.95703125 33.00390625 C33.56062377 37.31262233 36.14288174 41.63223243 38.6328125 46.0078125 C39.03113281 46.70648438 39.42945313 47.40515625 39.83984375 48.125 C40.82291184 50.13813546 41.45216541 51.92392995 41.8203125 54.1328125 C40.8203125 55.1328125 40.8203125 55.1328125 39.05444336 55.24633789 C38.30557861 55.24110107 37.55671387 55.23586426 36.78515625 55.23046875 C35.97626953 55.22724609 35.16738281 55.22402344 34.33398438 55.22070312 C33.48384766 55.21232422 32.63371094 55.20394531 31.7578125 55.1953125 C30.90380859 55.19080078 30.04980469 55.18628906 29.16992188 55.18164062 C27.05335587 55.16981623 24.93682565 55.15188019 22.8203125 55.1328125 C19.15364583 47.79947917 15.48697917 40.46614583 11.8203125 33.1328125 C11.4903125 40.3928125 11.1603125 47.6528125 10.8203125 55.1328125 C6.89125 55.16375 6.89125 55.16375 2.8828125 55.1953125 C2.056604 55.2044165 1.23039551 55.21352051 0.37915039 55.22290039 C-1.47402509 55.23005195 -3.32718058 55.1830977 -5.1796875 55.1328125 C-6.84685434 53.46564566 -6.30713632 51.4597511 -6.30908203 49.16992188 C-6.31223419 48.11212524 -6.31538635 47.05432861 -6.31863403 45.96447754 C-6.31559769 44.23795959 -6.31559769 44.23795959 -6.3125 42.4765625 C-6.31345673 41.30395874 -6.31441345 40.13135498 -6.31539917 38.92321777 C-6.3160812 36.43823188 -6.31422534 33.95324421 -6.31005859 31.46826172 C-6.30471069 27.64937363 -6.31000286 23.83060315 -6.31640625 20.01171875 C-6.31574547 17.60416641 -6.31446432 15.19661413 -6.3125 12.7890625 C-6.31452423 11.63805054 -6.31654846 10.48703857 -6.31863403 9.30114746 C-6.31548187 8.24335083 -6.31232971 7.1855542 -6.30908203 6.09570312 C-6.30828644 5.15940063 -6.30749084 4.22309814 -6.30667114 3.25842285 C-6.05855438 -0.89486449 -3.59066826 0.0041662 0 0 Z M11.8203125 8.1328125 C10.37642679 9.34710238 10.37642679 9.34710238 10.72265625 12.94921875 C10.72933161 14.53127932 10.74129375 16.11332409 10.7578125 17.6953125 C10.76232422 18.50162109 10.76683594 19.30792969 10.77148438 20.13867188 C10.78330732 22.13675006 10.80124336 24.13479033 10.8203125 26.1328125 C12.42551254 26.07257985 14.02965577 25.98372651 15.6328125 25.8828125 C16.52613281 25.83640625 17.41945313 25.79 18.33984375 25.7421875 C20.93059196 25.33278753 20.93059196 25.33278753 22.6171875 23.3359375 C24.4929615 19.90107861 24.50093139 16.94271366 23.8203125 13.1328125 C22.13797837 10.39901954 20.93090694 9.40453075 17.80859375 8.640625 C15.36950807 8.2456586 15.36950807 8.2456586 11.8203125 8.1328125 Z " fill="#0C0C13" transform="translate(417.1796875,243.8671875)"/>
<path d="M0 0 C1.32 0.33 2.64 0.66 4 1 C2.53712426 7.54969366 0.88304407 13.56733488 -2.015625 19.62109375 C-3.92930018 24.24580876 -4.88124094 29.13339809 -6 34 C1.92 34 9.84 34 18 34 C16.87534651 39.62326746 16.87534651 39.62326746 14.48046875 42.27734375 C13.95912354 42.86563965 13.43777832 43.45393555 12.90063477 44.06005859 C12.33530029 44.67961426 11.76996582 45.29916992 11.1875 45.9375 C9.99177048 47.28218137 8.79646703 48.62724172 7.6015625 49.97265625 C6.99602539 50.64828613 6.39048828 51.32391602 5.76660156 52.02001953 C3.16132072 54.93997913 0.60758721 57.90257248 -1.9375 60.875 C-2.41606445 61.43219727 -2.89462891 61.98939453 -3.38769531 62.56347656 C-8.13103809 68.10833469 -12.75898221 73.74780078 -17.36889648 79.40380859 C-17.92907471 80.08910645 -18.48925293 80.7744043 -19.06640625 81.48046875 C-19.56084229 82.08785889 -20.05527832 82.69524902 -20.56469727 83.32104492 C-23.40233214 86.64038751 -23.40233214 86.64038751 -25 88 C-25.99 88 -26.98 88 -28 88 C-27.54604664 82.77953638 -26.13860973 78.63691187 -24.11328125 73.8203125 C-22.4663433 69.6480697 -21.21012299 65.37446226 -19.9296875 61.078125 C-19.009444 58.03126839 -18.01996523 55.01476449 -17 52 C-18.22976562 52.08378906 -19.45953125 52.16757812 -20.7265625 52.25390625 C-22.35935242 52.3571286 -23.99216625 52.45997323 -25.625 52.5625 C-26.83736328 52.64661133 -26.83736328 52.64661133 -28.07421875 52.73242188 C-32.56162516 53.00604422 -36.56862499 52.96801881 -41 52 C-40.49890042 47.61537866 -39.01704885 45.1999003 -36 42 C-35.34 42 -34.68 42 -34 42 C-33.731875 41.21625 -33.46375 40.4325 -33.1875 39.625 C-32 37 -32 37 -29 35 C-28.484375 34.13375 -27.96875 33.2675 -27.4375 32.375 C-26.963125 31.59125 -26.48875 30.8075 -26 30 C-25.34 30 -24.68 30 -24 30 C-23.731875 29.195625 -23.46375 28.39125 -23.1875 27.5625 C-22.795625 26.716875 -22.40375 25.87125 -22 25 C-21.01 24.67 -20.02 24.34 -19 24 C-18.3172443 22.67483326 -17.65497718 21.3391143 -17 20 C-15.28297903 17.85372378 -13.54815431 15.76293839 -11.75 13.6875 C-11.25781982 13.11298096 -10.76563965 12.53846191 -10.25854492 11.9465332 C-8.84245774 10.2947038 -7.42148088 8.64718723 -6 7 C-4.77046227 5.56281737 -3.54119792 4.12540068 -2.3125 2.6875 C-1.549375 1.800625 -0.78625 0.91375 0 0 Z " fill="#F8302D" transform="translate(172,215)"/>
<path d="M0 0 C0.68578125 -0.020625 1.3715625 -0.04125 2.078125 -0.0625 C4.81303286 -0.08378333 7.0244219 -0.09708734 9.4296875 1.29296875 C11.25675067 4.28433688 12.29293093 7.50069026 13.375 10.8125 C13.89715197 12.35244231 14.42198347 13.89147816 14.94921875 15.4296875 C15.35793213 16.62223145 15.35793213 16.62223145 15.77490234 17.83886719 C17.1511475 21.74231267 18.6673019 25.58832029 20.1875 29.4375 C22.37165266 34.99989704 24.52551862 40.56929015 26.5625 46.1875 C26.96339844 47.28964844 27.36429687 48.39179688 27.77734375 49.52734375 C28.625 52.25 28.625 52.25 28.625 55.25 C22.355 55.25 16.085 55.25 9.625 55.25 C8.6484375 52.22265625 7.671875 49.1953125 6.6953125 46.16796875 C5.70540347 43.11684198 5.70540347 43.11684198 3.625 40.25 C0.26996524 39.88441883 0.26996524 39.88441883 -3.5 40.0625 C-5.76875 40.124375 -8.0375 40.18625 -10.375 40.25 C-12.355 45.2 -14.335 50.15 -16.375 55.25 C-19.345 55.25 -22.315 55.25 -25.375 55.25 C-24.87934359 47.15427864 -22.0255449 39.83944845 -19.375 32.25 C-18.87162306 30.73028105 -18.37098105 29.20964875 -17.875 27.6875 C-15.81410644 21.50481932 -13.59049608 15.37858006 -11.375 9.25 C-11.06046875 8.37859375 -10.7459375 7.5071875 -10.421875 6.609375 C-7.97718976 -0.05359066 -6.8237106 0.05073391 0 0 Z M-4.375 17.25 C-4.88012244 18.85256108 -5.37891627 20.45711792 -5.875 22.0625 C-6.1534375 22.95582031 -6.431875 23.84914063 -6.71875 24.76953125 C-7.50288351 27.30573395 -7.50288351 27.30573395 -7.375 30.25 C-4.405 30.25 -1.435 30.25 1.625 30.25 C-0.025 25.96 -1.675 21.67 -3.375 17.25 C-3.705 17.25 -4.035 17.25 -4.375 17.25 Z " fill="#1D1D23" transform="translate(324.375,243.75)"/>
<path d="M0 0 C6.93 0 13.86 0 21 0 C21 24.75 21 49.5 21 75 C14.07 75 7.14 75 0 75 C0 50.25 0 25.5 0 0 Z " fill="#080810" transform="translate(64,222)"/>
<path d="M0 0 C1.29811906 -0.00260775 2.59623812 -0.00521549 3.93369412 -0.00790226 C5.36727363 -0.00574037 6.800853 -0.00348372 8.23443222 -0.0011425 C9.76278494 -0.00229496 11.29113738 -0.00388333 12.81948924 -0.00586975 C17.01661841 -0.01004609 21.21372485 -0.00797998 25.4108541 -0.00488353 C29.93859114 -0.0026227 34.46632425 -0.00611251 38.99406052 -0.00886345 C47.86398446 -0.01331322 56.73389995 -0.01234806 65.60382423 -0.00945081 C72.81421833 -0.0071931 80.02461007 -0.00688585 87.23500443 -0.00797462 C88.26096328 -0.00812786 89.28692213 -0.00828109 90.34397064 -0.00843897 C92.42819113 -0.00875869 94.51241161 -0.00908291 96.59663209 -0.00941156 C116.14814591 -0.01226417 135.69965505 -0.00898304 155.2511681 -0.00361119 C172.02161315 0.00085398 188.79205127 0.00008286 205.56249619 -0.00452995 C225.03750273 -0.00988416 244.51250517 -0.01198669 263.98751235 -0.00891769 C266.06532017 -0.00859914 268.143128 -0.00828477 270.22093582 -0.00797462 C271.75439761 -0.00774321 271.75439761 -0.00774321 273.31883843 -0.00750712 C280.51722839 -0.00664431 287.71561573 -0.00809983 294.91400528 -0.01045418 C303.69156004 -0.01326188 312.46910587 -0.01249353 321.24665961 -0.00717343 C325.72378426 -0.00454913 330.20089403 -0.00350979 334.67801857 -0.00682259 C338.78008364 -0.00981188 342.88212008 -0.00814897 346.98418257 -0.00284503 C348.46465558 -0.00173204 349.94513103 -0.00228712 351.42560247 -0.00472082 C359.17876301 -0.01648383 366.80026767 0.12734321 374.49560165 1.12584114 C374.49560165 2.11584114 374.49560165 3.10584114 374.49560165 4.12584114 C246.45560165 4.12584114 118.41560165 4.12584114 -13.50439835 4.12584114 C-13.17439835 3.13584114 -12.84439835 2.14584114 -12.50439835 1.12584114 C-8.28081949 0.32437955 -4.29640553 0.00062318 0 0 Z " fill="#837D7C" transform="translate(77.50439834594727,312.87415885925293)"/>
<path d="M0 0 C0.85758911 -0.00315216 1.71517822 -0.00630432 2.59875488 -0.009552 C3.53102905 -0.00752777 4.46330322 -0.00550354 5.42382812 -0.00341797 C6.84979309 -0.00485306 6.84979309 -0.00485306 8.30456543 -0.00631714 C10.31876695 -0.00699904 12.33297065 -0.00514409 14.34716797 -0.00097656 C17.44178167 0.00437155 20.53625022 -0.00092124 23.63085938 -0.00732422 C25.58268261 -0.00666344 27.53450576 -0.00538228 29.48632812 -0.00341797 C30.88473938 -0.00645432 30.88473938 -0.00645432 32.31140137 -0.009552 C33.16899048 -0.00639984 34.02657959 -0.00324768 34.91015625 0 C35.66880981 0.00079559 36.42746338 0.00159119 37.20910645 0.00241089 C38.95507812 0.12939453 38.95507812 0.12939453 39.95507812 1.12939453 C40.09622974 3.79998304 39.9975492 6.45371691 39.95507812 9.12939453 C33.52007812 9.62439453 33.52007812 9.62439453 26.95507812 10.12939453 C26.62507813 24.97939453 26.29507812 39.82939453 25.95507812 55.12939453 C20.34507812 55.12939453 14.73507812 55.12939453 8.95507812 55.12939453 C8.62507813 40.27939453 8.29507812 25.42939453 7.95507812 10.12939453 C4.32507813 10.12939453 0.69507813 10.12939453 -3.04492188 10.12939453 C-5.04492188 8.12939453 -5.04492188 8.12939453 -5.23242188 4.56689453 C-4.97134307 -0.21955022 -4.37399773 0.00458697 0 0 Z " fill="#0D0D15" transform="translate(263.044921875,243.87060546875)"/>
<path d="M0 0 C1.27641888 -0.00199105 2.55283777 -0.0039821 3.86793602 -0.00603348 C5.27696366 -0.00318078 6.68599111 -0.00023519 8.09501839 0.00279331 C9.59749944 0.00235712 11.09998041 0.00148133 12.60246098 0.00020415 C16.72768591 -0.0020314 20.85288487 0.00196764 24.9781065 0.00698221 C29.42794036 0.01129999 33.87777275 0.00983934 38.32760811 0.00907993 C46.03611155 0.00855554 53.74460652 0.0116935 61.45310783 0.01731777 C72.59831195 0.02544423 83.74351198 0.02804917 94.88871874 0.02930576 C112.9710069 0.03149448 131.05329054 0.03814968 149.13557625 0.04760838 C166.70100571 0.05678716 184.26643394 0.06386571 201.83186531 0.06811619 C202.91456836 0.06837891 203.99727142 0.06864164 205.11278366 0.06891232 C210.54437771 0.07021736 215.97597177 0.07148106 221.40756583 0.07272422 C266.46924951 0.08309121 311.53092827 0.10070463 356.5926075 0.12304783 C356.5926075 0.45304783 356.5926075 0.78304783 356.5926075 1.12304783 C355.29889449 1.12939574 355.29889449 1.12939574 353.97904587 1.13587189 C332.87322948 1.23973311 311.76744278 1.34844682 290.66167831 1.46238708 C280.45458313 1.51737666 270.24748449 1.57079733 260.0403614 1.62036228 C251.13108085 1.66362917 242.22182248 1.71000499 233.31257665 1.75992638 C228.60682128 1.78619065 223.90106932 1.81102598 219.1952877 1.83212185 C198.97368808 1.92378191 178.79371128 2.12098024 158.5926075 3.12304783 C158.5926075 3.45304783 158.5926075 3.78304783 158.5926075 4.12304783 C101.8326075 4.12304783 45.0726075 4.12304783 -13.4073925 4.12304783 C-13.0773925 3.13304783 -12.7473925 2.14304783 -12.4073925 1.12304783 C-8.21597581 0.32926281 -4.26340482 -0.00147115 0 0 Z " fill="#C8C3C3" transform="translate(77.40739250183105,312.8769521713257)"/>
<path d="M0 0 C1.02637573 0.00326294 1.02637573 0.00326294 2.07348633 0.0065918 C4.1302767 0.00971725 6.18557879 -0.01357451 8.2421875 -0.0390625 C17.09124916 -0.04339815 24.96717722 0.20553801 32.09960938 5.88476562 C35.59444732 9.77762678 35.85356295 14.25957819 35.59960938 19.32226562 C34.66210938 22.94726562 34.66210938 22.94726562 33.59960938 25.32226562 C32.73182938 22.37848887 32.56575995 19.93996959 32.72460938 16.88476562 C32.75779293 12.84300852 32.30322272 10.4920192 29.59960938 7.32226562 C24.31567575 3.52867225 19.83311332 3.18962025 13.42773438 3.00585938 C12.17895508 2.96775146 10.93017578 2.92964355 9.64355469 2.89038086 C8.06155273 2.84727783 6.47955078 2.8041748 4.84960938 2.75976562 C-0.18289063 2.61539063 -5.21539062 2.47101563 -10.40039062 2.32226562 C-10.40039062 19.15226562 -10.40039062 35.98226563 -10.40039062 53.32226562 C-5.78039062 53.32226562 -1.16039062 53.32226562 3.59960938 53.32226562 C3.59437256 51.96431885 3.58913574 50.60637207 3.58374023 49.20727539 C3.56569552 44.1885646 3.55417931 39.16985669 3.54467773 34.15112305 C3.5396363 31.9753369 3.5328033 29.79955416 3.52416992 27.6237793 C3.512096 24.50373496 3.50637933 21.38373524 3.50195312 18.26367188 C3.49679184 17.28451309 3.49163055 16.30535431 3.48631287 15.29652405 C3.48619957 13.94523659 3.48619957 13.94523659 3.48608398 12.56665039 C3.48386337 11.76945084 3.48164276 10.97225128 3.47935486 10.15089417 C3.59960938 8.32226562 3.59960938 8.32226562 4.59960938 7.32226562 C9.09477808 7.06292897 12.62026606 7.11151934 16.59960938 9.32226562 C19.4648405 11.89109353 19.60414954 13.36312707 20.03710938 17.25976562 C19.89220666 21.34754749 18.56276381 23.44626279 15.59960938 26.32226562 C12.64296418 27.80058822 9.85731201 27.38259345 6.59960938 27.32226562 C6.81617188 27.8765625 7.03273438 28.43085938 7.25585938 29.00195312 C7.53429687 29.72640625 7.81273437 30.45085937 8.09960938 31.19726562 C8.37804687 31.9165625 8.65648437 32.63585937 8.94335938 33.37695312 C9.59960938 35.32226562 9.59960938 35.32226562 9.59960938 37.32226562 C8.93960937 37.32226562 8.27960938 37.32226562 7.59960938 37.32226562 C6.93960937 35.67226563 6.27960938 34.02226562 5.59960938 32.32226562 C5.26960938 39.91226563 4.93960937 47.50226563 4.59960938 55.32226562 C-0.68039062 55.32226562 -5.96039063 55.32226562 -11.40039062 55.32226562 C-12.63507788 52.85289112 -12.53389935 51.20699404 -12.5456543 48.4453125 C-12.55203415 47.4308606 -12.558414 46.41640869 -12.56498718 45.37121582 C-12.56610001 44.27224976 -12.56721283 43.17328369 -12.56835938 42.04101562 C-12.57168777 40.91659058 -12.57501617 39.79216553 -12.57844543 38.63366699 C-12.58351474 36.25301524 -12.58585376 33.87235636 -12.58569336 31.49169922 C-12.58788153 27.83744699 -12.60604209 24.18349571 -12.625 20.52929688 C-12.6279335 18.22070416 -12.62991859 15.91211001 -12.63085938 13.60351562 C-12.63804489 12.50454956 -12.64523041 11.4055835 -12.65263367 10.27331543 C-12.64955704 9.25886353 -12.64648041 8.24441162 -12.64331055 7.19921875 C-12.64473557 6.30368286 -12.64616058 5.40814697 -12.64762878 4.48547363 C-11.93073276 -1.78700153 -4.74916771 0.02577249 0 0 Z M5.59960938 8.32226562 C4.15572366 9.53655551 4.15572366 9.53655551 4.50195312 13.13867188 C4.50862849 14.72073244 4.52059062 16.30277721 4.53710938 17.88476562 C4.54162109 18.69107422 4.54613281 19.49738281 4.55078125 20.328125 C4.5626042 22.32620319 4.58054023 24.32424345 4.59960938 26.32226562 C6.20480941 26.26203298 7.80895265 26.17317964 9.41210938 26.07226562 C10.30542969 26.02585937 11.19875 25.97945313 12.11914062 25.93164062 C14.71675045 25.52458217 14.71675045 25.52458217 16.39257812 23.49023438 C18.2093839 20.22703953 18.11440344 17.99017335 17.59960938 14.32226562 C14.92313302 10.5914198 13.33923044 9.49484387 8.84960938 8.44726562 C7.24085938 8.38539063 7.24085938 8.38539063 5.59960938 8.32226562 Z " fill="#A49CA2" transform="translate(369.400390625,243.677734375)"/>
<path d="M0 0 C1.07507813 -0.00128906 2.15015625 -0.00257813 3.2578125 -0.00390625 C4.3921875 -0.00003906 5.5265625 0.00382813 6.6953125 0.0078125 C8.33886719 0.00201172 8.33886719 0.00201172 10.015625 -0.00390625 C30.63525383 0.02052459 30.63525383 0.02052459 35.8203125 4.1328125 C35.4903125 4.7928125 35.1603125 5.4528125 34.8203125 6.1328125 C33.8303125 5.65199219 32.8403125 5.17117187 31.8203125 4.67578125 C25.10258336 2.15663282 17.90166646 2.55937309 10.8203125 2.4453125 C5.8703125 2.3421875 0.9203125 2.2390625 -4.1796875 2.1328125 C-4.1796875 18.9628125 -4.1796875 35.7928125 -4.1796875 53.1328125 C0.4403125 53.1328125 5.0603125 53.1328125 9.8203125 53.1328125 C9.81507568 51.77486572 9.80983887 50.41691895 9.80444336 49.01782227 C9.78639865 43.99911147 9.77488244 38.98040357 9.76538086 33.96166992 C9.76033942 31.78588377 9.75350643 29.61010103 9.74487305 27.43432617 C9.73279912 24.31428183 9.72708245 21.19428212 9.72265625 18.07421875 C9.71749496 17.09505997 9.71233368 16.11590118 9.70701599 15.10707092 C9.70690269 13.75578346 9.70690269 13.75578346 9.70678711 12.37719727 C9.7045665 11.57999771 9.70234589 10.78279816 9.70005798 9.96144104 C9.8203125 8.1328125 9.8203125 8.1328125 10.8203125 7.1328125 C16.52764913 6.57326969 19.33669692 7.60997168 23.8203125 11.1328125 C25.54878717 12.86128717 25.11420743 15.090146 25.1953125 17.4453125 C25.13357552 22.73411412 25.13357552 22.73411412 22.7578125 25.7578125 C19.40511628 27.32715967 16.49855134 27.84432318 12.8203125 28.1328125 C13.09746094 28.72449219 13.37460937 29.31617188 13.66015625 29.92578125 C17.25792234 37.77428877 17.25792234 37.77428877 17.8203125 42.1328125 C15.34837959 39.16649301 13.56412797 36.62044343 11.8203125 33.1328125 C11.4903125 40.3928125 11.1603125 47.6528125 10.8203125 55.1328125 C6.89125 55.16375 6.89125 55.16375 2.8828125 55.1953125 C2.056604 55.2044165 1.23039551 55.21352051 0.37915039 55.22290039 C-1.47402509 55.23005195 -3.32718058 55.1830977 -5.1796875 55.1328125 C-6.84685434 53.46564566 -6.30713632 51.4597511 -6.30908203 49.16992188 C-6.31223419 48.11212524 -6.31538635 47.05432861 -6.31863403 45.96447754 C-6.31559769 44.23795959 -6.31559769 44.23795959 -6.3125 42.4765625 C-6.31345673 41.30395874 -6.31441345 40.13135498 -6.31539917 38.92321777 C-6.3160812 36.43823188 -6.31422534 33.95324421 -6.31005859 31.46826172 C-6.30471069 27.64937363 -6.31000286 23.83060315 -6.31640625 20.01171875 C-6.31574547 17.60416641 -6.31446432 15.19661413 -6.3125 12.7890625 C-6.31452423 11.63805054 -6.31654846 10.48703857 -6.31863403 9.30114746 C-6.31548187 8.24335083 -6.31232971 7.1855542 -6.30908203 6.09570312 C-6.30828644 5.15940063 -6.30749084 4.22309814 -6.30667114 3.25842285 C-6.05855438 -0.89486449 -3.59066826 0.0041662 0 0 Z M11.8203125 8.1328125 C10.37642679 9.34710238 10.37642679 9.34710238 10.72265625 12.94921875 C10.72933161 14.53127932 10.74129375 16.11332409 10.7578125 17.6953125 C10.76232422 18.50162109 10.76683594 19.30792969 10.77148438 20.13867188 C10.78330732 22.13675006 10.80124336 24.13479033 10.8203125 26.1328125 C12.42551254 26.07257985 14.02965577 25.98372651 15.6328125 25.8828125 C16.52613281 25.83640625 17.41945313 25.79 18.33984375 25.7421875 C20.93059196 25.33278753 20.93059196 25.33278753 22.6171875 23.3359375 C24.4929615 19.90107861 24.50093139 16.94271366 23.8203125 13.1328125 C22.13797837 10.39901954 20.93090694 9.40453075 17.80859375 8.640625 C15.36950807 8.2456586 15.36950807 8.2456586 11.8203125 8.1328125 Z " fill="#AEA9AD" transform="translate(417.1796875,243.8671875)"/>
<path d="M0 0 C0.85758911 -0.00315216 1.71517822 -0.00630432 2.59875488 -0.009552 C3.53102905 -0.00752777 4.46330322 -0.00550354 5.42382812 -0.00341797 C6.84979309 -0.00485306 6.84979309 -0.00485306 8.30456543 -0.00631714 C10.31876695 -0.00699904 12.33297065 -0.00514409 14.34716797 -0.00097656 C17.44178167 0.00437155 20.53625022 -0.00092124 23.63085938 -0.00732422 C25.58268261 -0.00666344 27.53450576 -0.00538228 29.48632812 -0.00341797 C30.88473938 -0.00645432 30.88473938 -0.00645432 32.31140137 -0.009552 C33.16899048 -0.00639984 34.02657959 -0.00324768 34.91015625 0 C35.66880981 0.00079559 36.42746338 0.00159119 37.20910645 0.00241089 C38.95507812 0.12939453 38.95507812 0.12939453 39.95507812 1.12939453 C40.09622974 3.79998304 39.9975492 6.45371691 39.95507812 9.12939453 C33.52007812 9.62439453 33.52007812 9.62439453 26.95507812 10.12939453 C26.62507813 24.97939453 26.29507812 39.82939453 25.95507812 55.12939453 C20.34507812 55.12939453 14.73507812 55.12939453 8.95507812 55.12939453 C8.62507813 40.27939453 8.29507812 25.42939453 7.95507812 10.12939453 C4.32507813 10.12939453 0.69507813 10.12939453 -3.04492188 10.12939453 C-5.04492188 8.12939453 -5.04492188 8.12939453 -5.23242188 4.56689453 C-4.97134307 -0.21955022 -4.37399773 0.00458697 0 0 Z M-4.04492188 2.12939453 C-4.04492188 4.10939453 -4.04492188 6.08939453 -4.04492188 8.12939453 C0.57507813 8.12939453 5.19507813 8.12939453 9.95507812 8.12939453 C9.95507812 23.30939453 9.95507812 38.48939453 9.95507812 54.12939453 C14.57507813 54.12939453 19.19507813 54.12939453 23.95507812 54.12939453 C24.28507812 39.27939453 24.61507813 24.42939453 24.95507812 9.12939453 C29.57507813 8.79939453 34.19507813 8.46939453 38.95507812 8.12939453 C38.95507812 6.14939453 38.95507812 4.16939453 38.95507812 2.12939453 C24.76507813 2.12939453 10.57507813 2.12939453 -4.04492188 2.12939453 Z " fill="#9C979E" transform="translate(263.044921875,243.87060546875)"/>
<path d="M0 0 C0.66 0 1.32 0 2 0 C0.38304525 3.63814819 -1.35438887 5.69298608 -4 9 C4.25 9 12.5 9 21 9 C18.75 21.375 18.75 21.375 17 26 C16.34 26 15.68 26 15 26 C14.67 29.96 14.34 33.92 14 38 C18.2379384 34.02693275 21.70683011 29.62680951 25.23046875 25.01171875 C25.81441406 24.34785156 26.39835937 23.68398438 27 23 C27.66 23 28.32 23 29 23 C29.39058594 22.14728516 29.39058594 22.14728516 29.7890625 21.27734375 C31.10452744 18.80342097 32.63374669 16.75617502 34.375 14.5625 C34.99503906 13.78132813 35.61507812 13.00015625 36.25390625 12.1953125 C37.11822266 11.10863281 37.11822266 11.10863281 38 10 C38.763125 8.989375 39.52625 7.97875 40.3125 6.9375 C40.869375 6.298125 41.42625 5.65875 42 5 C42.66 5 43.32 5 44 5 C44.268125 4.360625 44.53625 3.72125 44.8125 3.0625 C46 1 46 1 49 0 C47.73063053 2.73362753 46.37591334 4.92280422 44.3828125 7.1796875 C43.86420654 7.77177002 43.34560059 8.36385254 42.8112793 8.97387695 C42.25480713 9.60124756 41.69833496 10.22861816 41.125 10.875 C39.94628981 12.21976748 38.76791203 13.5648264 37.58984375 14.91015625 C36.99155762 15.59094238 36.39327148 16.27172852 35.77685547 16.97314453 C33.06174214 20.07026886 30.37052533 23.18756462 27.6875 26.3125 C27.19338623 26.88766357 26.69927246 27.46282715 26.19018555 28.05541992 C22.56487546 32.29477716 19.05622863 36.61622358 15.62109375 41.01171875 C12.73806566 44.54777008 12.73806566 44.54777008 11 46 C10.01 46 9.02 46 8 46 C8.45395336 40.77953638 9.86139027 36.63691187 11.88671875 31.8203125 C13.5336567 27.6480697 14.78987701 23.37446226 16.0703125 19.078125 C16.990556 16.03126839 17.98003477 13.01476449 19 10 C17.15535156 10.12568359 17.15535156 10.12568359 15.2734375 10.25390625 C13.64064758 10.3571286 12.00783375 10.45997323 10.375 10.5625 C9.16263672 10.64661133 9.16263672 10.64661133 7.92578125 10.73242188 C3.43837484 11.00604422 -0.56862499 10.96801881 -5 10 C-4.49890042 5.61537866 -3.01704885 3.1999003 0 0 Z " fill="#F7B7B7" transform="translate(136,257)"/>
<path d="M0 0 C1.32 0.33 2.64 0.66 4 1 C2.53712426 7.54969366 0.88304407 13.56733488 -2.015625 19.62109375 C-3.92930018 24.24580876 -4.88124094 29.13339809 -6 34 C1.92 34 9.84 34 18 34 C17 39 17 39 14.9375 40.8125 C14.298125 41.204375 13.65875 41.59625 13 42 C13.66 40.02 14.32 38.04 15 36 C6.75 36 -1.5 36 -10 36 C-11.40907283 33.18185434 -10.50872691 31.82722796 -9.5625 28.875 C-9.27503906 27.96492188 -8.98757812 27.05484375 -8.69140625 26.1171875 C-8.46324219 25.41851562 -8.23507813 24.71984375 -8 24 C-7.34 24 -6.68 24 -6 24 C-5.87625 23.0925 -5.7525 22.185 -5.625 21.25 C-5.06467492 18.33630961 -4.29795761 16.59591522 -3 14 C-2.61709538 12.00889599 -2.27395385 10.00899487 -2 8 C-3.32 7.67 -4.64 7.34 -6 7 C-4.02 4.69 -2.04 2.38 0 0 Z " fill="#F08889" transform="translate(172,215)"/>
<path d="M0 0 C4.00419579 2.49363091 7.35641882 5.43640541 9.609375 9.625 C9.98046875 12.1953125 9.98046875 12.1953125 9.609375 14.625 C7.67364542 16.93448716 5.31724899 18.33311845 2.609375 19.625 C-0.078125 19.8125 -0.078125 19.8125 -2.390625 18.625 C-3.77186463 16.65777992 -5.10550626 14.65631672 -6.390625 12.625 C-9.79363772 10.04340414 -13.23751083 10.32295533 -17.390625 10.625 C-20.56071972 12.24578662 -20.56071972 12.24578662 -20.90234375 14.7890625 C-20.96035156 15.60117188 -21.01835937 16.41328125 -21.078125 17.25 C-21.14386719 18.06726563 -21.20960938 18.88453125 -21.27734375 19.7265625 C-21.31472656 20.35304687 -21.35210937 20.97953125 -21.390625 21.625 C-22.050625 21.625 -22.710625 21.625 -23.390625 21.625 C-23.99798696 12.7845092 -23.99798696 12.7845092 -22.015625 9 C-17.83735729 6.81138358 -13.98702805 6.67182886 -9.390625 7.625 C-5.4281447 9.93584317 -2.91581051 12.83722173 -0.390625 16.625 C2.53816871 15.99740135 4.97033129 15.03877341 7.609375 13.625 C4.79544447 6.90283263 0.46849799 3.01669374 -6.25927734 0.22485352 C-10.53564328 -0.97870102 -14.9232823 -0.67992233 -19.328125 -0.5625 C-20.29814453 -0.54896484 -21.26816406 -0.53542969 -22.26757812 -0.52148438 C-24.64251629 -0.48638677 -27.01626878 -0.43722275 -29.390625 -0.375 C-22.56870258 -7.19692242 -7.69980973 -3.66261219 0 0 Z " fill="#A69FA2" transform="translate(243.390625,221.375)"/>
<path d="M0 0 C4.47533426 0.22376671 7.2080103 0.80502648 10.5625 3.8125 C12.27874085 7.2449817 12.43545281 10.47278802 11.75 14.1875 C9.95636089 16.9975346 8.73119065 18.69690468 5.75 20.1875 C3.4170134 20.22772391 1.08293334 20.23070247 -1.25 20.1875 C-1.0334375 20.74179687 -0.816875 21.29609375 -0.59375 21.8671875 C-0.3153125 22.59164063 -0.036875 23.31609375 0.25 24.0625 C0.5284375 24.78179687 0.806875 25.50109375 1.09375 26.2421875 C1.75 28.1875 1.75 28.1875 1.75 30.1875 C1.09 30.1875 0.43 30.1875 -0.25 30.1875 C-0.91 28.5375 -1.57 26.8875 -2.25 25.1875 C-2.58 32.7775 -2.91 40.3675 -3.25 48.1875 C-8.53 48.1875 -13.81 48.1875 -19.25 48.1875 C-19.25 47.8575 -19.25 47.5275 -19.25 47.1875 C-14.3 47.1875 -9.35 47.1875 -4.25 47.1875 C-4.25785522 45.10514038 -4.25785522 45.10514038 -4.26586914 42.98071289 C-4.28391346 37.85018555 -4.29542992 32.71966103 -4.30493164 27.58911133 C-4.30997317 25.36482268 -4.31680623 23.14053737 -4.32543945 20.91625977 C-4.33751298 17.72671691 -4.34322996 14.53721771 -4.34765625 11.34765625 C-4.35281754 10.34662369 -4.35797882 9.34559113 -4.36329651 8.31422424 C-4.36337204 7.39334518 -4.36344757 6.47246613 -4.36352539 5.52368164 C-4.365746 4.70871719 -4.36796661 3.89375275 -4.37025452 3.05409241 C-4.15883578 -0.22755246 -3.36737447 0.1942716 0 0 Z M-2.25 1.1875 C-3.69388571 2.40178988 -3.69388571 2.40178988 -3.34765625 6.00390625 C-3.34098089 7.58596682 -3.32901875 9.16801159 -3.3125 10.75 C-3.30798828 11.55630859 -3.30347656 12.36261719 -3.29882812 13.19335938 C-3.28700518 15.19143756 -3.26906914 17.18947783 -3.25 19.1875 C-1.64479996 19.12726735 -0.04065673 19.03841401 1.5625 18.9375 C2.45582031 18.89109375 3.34914063 18.8446875 4.26953125 18.796875 C6.86714107 18.38981655 6.86714107 18.38981655 8.54296875 16.35546875 C10.35977453 13.0922739 10.26479407 10.85540773 9.75 7.1875 C7.07352365 3.45665418 5.48962106 2.36007825 1 1.3125 C-0.60875 1.250625 -0.60875 1.250625 -2.25 1.1875 Z " fill="#A69EA6" transform="translate(377.25,250.8125)"/>
<path d="M0 0 C1.32 0 2.64 0 4 0 C4.99 1.98 5.98 3.96 7 6 C8.95216435 4.04783565 9.84826645 2.46800047 11 0 C12.32 0 13.64 0 15 0 C15 3.96 15 7.92 15 12 C10.05 12 5.1 12 0 12 C0 8.04 0 4.08 0 0 Z " fill="#938D91" transform="translate(67,318)"/>
<path d="M0 0 C35.95652174 0 35.95652174 0 41 4 C40.67 4.66 40.34 5.32 40 6 C39.01 5.51917969 38.02 5.03835937 37 4.54296875 C30.28227086 2.02382032 23.08135396 2.42656059 16 2.3125 C11.05 2.209375 6.1 2.10625 1 2 C1 18.83 1 35.66 1 53 C0.67 53 0.34 53 0 53 C0 35.51 0 18.02 0 0 Z " fill="#8F8990" transform="translate(412,244)"/>
<path d="M0 0 C0.66 0 1.32 0 2 0 C0.38304525 3.63814819 -1.35438887 5.69298608 -4 9 C4.25 9 12.5 9 21 9 C18.75 21.375 18.75 21.375 17 26 C16.34 26 15.68 26 15 26 C14.96261719 26.88042969 14.92523438 27.76085937 14.88671875 28.66796875 C14.82097656 29.82941406 14.75523437 30.99085938 14.6875 32.1875 C14.62949219 33.33605469 14.57148438 34.48460937 14.51171875 35.66796875 C13.97383787 39.17035341 13.13882292 41.19576551 11 44 C10.34 44 9.68 44 9 44 C9.57165259 39.23974086 10.5251762 34.94701652 12.06640625 30.41015625 C12.46923828 29.21455078 12.87207031 28.01894531 13.28710938 26.78710938 C13.91842773 24.94342773 13.91842773 24.94342773 14.5625 23.0625 C14.99209513 21.79380883 15.42113659 20.52493004 15.84960938 19.25585938 C16.89431794 16.16868688 17.94459782 13.08352965 19 10 C17.15535156 10.12568359 17.15535156 10.12568359 15.2734375 10.25390625 C13.64064758 10.3571286 12.00783375 10.45997323 10.375 10.5625 C9.16263672 10.64661133 9.16263672 10.64661133 7.92578125 10.73242188 C3.43837484 11.00604422 -0.56862499 10.96801881 -5 10 C-4.49890042 5.61537866 -3.01704885 3.1999003 0 0 Z " fill="#F6B6B3" transform="translate(136,257)"/>
<path d="M0 0 C0.33 0 0.66 0 1 0 C1 37.95 1 75.9 1 115 C0.67 115 0.34 115 0 115 C0 77.05 0 39.1 0 0 Z " fill="#E7D5D4" transform="translate(22,215)"/>
<path d="M0 0 C1.34730698 -0.00021904 1.34730698 -0.00021904 2.72183228 -0.0004425 C5.67607072 0.00025141 8.63024529 0.00801934 11.58447266 0.01586914 C13.63855963 0.01773517 15.69264704 0.0191582 17.74673462 0.02015686 C23.14224485 0.02396745 28.53772798 0.03378527 33.93322754 0.04486084 C39.44327427 0.05510633 44.95332539 0.0596612 50.46337891 0.06469727 C61.2667762 0.07540886 72.07015342 0.09246775 82.87353516 0.11352539 C82.87353516 0.44352539 82.87353516 0.77352539 82.87353516 1.11352539 C36.83853516 1.60852539 36.83853516 1.60852539 -10.12646484 2.11352539 C-10.12646484 2.77352539 -10.12646484 3.43352539 -10.12646484 4.11352539 C-12.10646484 4.11352539 -14.08646484 4.11352539 -16.12646484 4.11352539 C-15.79646484 3.12352539 -15.46646484 2.13352539 -15.12646484 1.11352539 C-10.03229431 0.08004474 -5.17020229 -0.02216333 0 0 Z " fill="#FFF8F8" transform="translate(80.12646484375,312.886474609375)"/>
<path d="M0 0 C3 0.1875 3 0.1875 5 1.1875 C4.79375 1.97125 4.5875 2.755 4.375 3.5625 C4.25125 4.42875 4.1275 5.295 4 6.1875 C4.66 6.8475 5.32 7.5075 6 8.1875 C6 9.5075 6 10.8275 6 12.1875 C2.37 12.1875 -1.26 12.1875 -5 12.1875 C-4.67 10.8675 -4.34 9.5475 -4 8.1875 C-4.33 7.8575 -4.66 7.5275 -5 7.1875 C-5.1875 4.75 -5.1875 4.75 -5 2.1875 C-3 0.1875 -3 0.1875 0 0 Z " fill="#857E7E" transform="translate(409,317.8125)"/>
<path d="M0 0 C0.721875 0.185625 1.44375 0.37125 2.1875 0.5625 C5.12826973 1.01995307 7.14103058 0.73516357 10 0 C10 4.26826873 9.62386487 4.93882432 7 8 C7.99 9.32 8.98 10.64 10 12 C6.37 12 2.74 12 -1 12 C-1.14285714 3.42857143 -1.14285714 3.42857143 0 0 Z " fill="#B9B1B1" transform="translate(133,318)"/>
<path d="M0 0 C2.3125 0.0625 2.3125 0.0625 5 1 C7.16885104 4.96376224 8 7.46077616 8 12 C4.37 12 0.74 12 -3 12 C-2.49202991 7.6822542 -1.80317221 3.96697886 0 0 Z " fill="#968F8F" transform="translate(377,318)"/>
<path d="M0 0 C0 4.89104899 -3.71270228 7.55874212 -6.8359375 11.11328125 C-9.04241858 14.05658363 -9.85500636 16.55008438 -11 20 C-11.99 20.33 -12.98 20.66 -14 21 C-14.2165625 21.8971875 -14.2165625 21.8971875 -14.4375 22.8125 C-15.21463211 25.83468042 -16.62320856 27.01934047 -19 29 C-20.65816784 29.68753301 -22.32459336 30.35561283 -24 31 C-25.77277259 32.52007842 -25.77277259 32.52007842 -27 34 C-25.75023244 30.34683329 -25.32901247 29.21934164 -22 27 C-21.484375 26.13375 -20.96875 25.2675 -20.4375 24.375 C-19.963125 23.59125 -19.48875 22.8075 -19 22 C-18.34 22 -17.68 22 -17 22 C-16.731875 21.195625 -16.46375 20.39125 -16.1875 19.5625 C-15.795625 18.716875 -15.40375 17.87125 -15 17 C-14.01 16.67 -13.02 16.34 -12 16 C-11.3136192 14.67670728 -10.65223369 13.3404527 -10 12 C-8.32262591 9.87715934 -6.63039885 7.80534095 -4.875 5.75 C-4.40707031 5.19570312 -3.93914062 4.64140625 -3.45703125 4.0703125 C-2.30824672 2.71052674 -1.15460347 1.35484835 0 0 Z " fill="#F5A5A7" transform="translate(165,223)"/>
<path d="M0 0 C1.32 0 2.64 0 4 0 C4.67667998 1.24460783 5.34094719 2.49596896 6 3.75 C6.556875 4.79414063 6.556875 4.79414063 7.125 5.859375 C8 8 8 8 8 12 C4.37 12 0.74 12 -3 12 C-2.49202991 7.6822542 -1.80317221 3.96697886 0 0 Z " fill="#8F8988" transform="translate(105,318)"/>
<path d="M0 0 C2.05078125 0.03255208 4.1015625 0.06510417 6.15234375 0.09765625 C5.98734375 0.84015625 5.82234375 1.58265625 5.65234375 2.34765625 C5.03308679 5.28772203 5.03308679 5.28772203 5.15234375 9.09765625 C4.49234375 9.09765625 3.83234375 9.09765625 3.15234375 9.09765625 C3.15234375 9.75765625 3.15234375 10.41765625 3.15234375 11.09765625 C4.14234375 11.42765625 5.13234375 11.75765625 6.15234375 12.09765625 C3.18234375 12.09765625 0.21234375 12.09765625 -2.84765625 12.09765625 C-2.87452904 10.28523573 -2.8939934 8.47270392 -2.91015625 6.66015625 C-2.92175781 5.65082031 -2.93335938 4.64148438 -2.9453125 3.6015625 C-2.81063978 0.1485539 -2.81063978 0.1485539 0 0 Z " fill="#BDB6B5" transform="translate(347.84765625,317.90234375)"/>
<path d="M0 0 C2.62489812 1.31244906 2.85573046 2.51902767 4 5.1875 C4.33 5.94417969 4.66 6.70085937 5 7.48046875 C6.11068608 10.27887704 7.04791216 13.14373648 8 16 C14.435 15.505 14.435 15.505 21 15 C20.7525 13.3603125 20.7525 13.3603125 20.5 11.6875 C20 8 20 8 20 5 C25.72535211 12.33098592 25.72535211 12.33098592 26 17 C23.57162702 19.42837298 17.86203875 18.78444516 14.52148438 18.87939453 C10.27616131 18.7493075 8.5517869 18.51353619 5.3515625 15.53515625 C2.38117024 10.46543613 0.76946154 5.8234248 0 0 Z " fill="#B9B4B7" transform="translate(379,281)"/>
<path d="M0 0 C2.05078125 0.03255208 4.1015625 0.06510417 6.15234375 0.09765625 C6.15234375 1.41765625 6.15234375 2.73765625 6.15234375 4.09765625 C5.16234375 4.59265625 5.16234375 4.59265625 4.15234375 5.09765625 C4.49265625 5.99484375 4.49265625 5.99484375 4.83984375 6.91015625 C5.15234375 9.09765625 5.15234375 9.09765625 4.02734375 10.84765625 C1.61715501 12.45444874 -0.00619042 12.19081906 -2.84765625 12.09765625 C-2.87452904 10.28523573 -2.8939934 8.47270392 -2.91015625 6.66015625 C-2.92175781 5.65082031 -2.93335938 4.64148438 -2.9453125 3.6015625 C-2.81063978 0.1485539 -2.81063978 0.1485539 0 0 Z " fill="#BCB5B5" transform="translate(267.84765625,317.90234375)"/>
<path d="M0 0 C2.16874252 0.50603992 3.99967627 0.99983813 6 2 C6.33 1.34 6.66 0.68 7 0 C8.32 0 9.64 0 11 0 C10.33501617 4.38889325 8.81242323 7.9811485 7 12 C5.68 12 4.36 12 3 12 C-0.42857143 4.71428571 -0.42857143 4.71428571 0 0 Z " fill="#8B8585" transform="translate(434,318)"/>
<path d="M0 0 C2.64 0 5.28 0 8 0 C8.33 0.99 8.66 1.98 9 3 C8.34 3.66 7.68 4.32 7 5 C7.3185177 7.10820797 7.3185177 7.10820797 8 9 C7.01 9.495 7.01 9.495 6 10 C5.34 9.67 4.68 9.34 4 9 C4 9.66 4 10.32 4 11 C5.32 11.33 6.64 11.66 8 12 C5.36 12 2.72 12 0 12 C0 8.04 0 4.08 0 0 Z " fill="#BDB5B5" transform="translate(163,318)"/>
<path d="M0 0 C4.10757963 -0.07489276 8.2148876 -0.12894754 12.32299805 -0.16479492 C13.71662328 -0.17975938 15.11020244 -0.20013851 16.50366211 -0.22631836 C34.80407513 -0.56120213 34.80407513 -0.56120213 42.5 5.5625 C45.99483794 9.45536115 46.25395358 13.93731256 46 19 C45.0625 22.625 45.0625 22.625 44 25 C43.13222 22.05622325 42.96615057 19.61770397 43.125 16.5625 C43.15818356 12.5207429 42.70361334 10.16975358 40 7 C34.48581037 2.97613189 28.8017449 1.76464809 22.0703125 1.5859375 C20.78125 1.54726562 19.4921875 1.50859375 18.1640625 1.46875 C16.81771293 1.43730242 15.47135868 1.40605489 14.125 1.375 C12.75518486 1.33676959 11.38539245 1.29771499 10.015625 1.2578125 C6.67721737 1.16377285 3.33881186 1.07811943 0 1 C0 0.67 0 0.34 0 0 Z " fill="#C6C1C3" transform="translate(359,244)"/>
<path d="M0 0 C2.31 0 4.62 0 7 0 C8.47806867 3.84297855 7.3101318 6.23337109 6 10 C6.33 10.66 6.66 11.32 7 12 C4.69 12 2.38 12 0 12 C0 8.04 0 4.08 0 0 Z " fill="#A9A2A1" transform="translate(294,318)"/>
<path d="M0 0 C6.27 0 12.54 0 19 0 C24 10.375 24 10.375 24 16 C29.28 16 34.56 16 40 16 C40.33 14.68 40.66 13.36 41 12 C41.495 14.475 41.495 14.475 42 17 C35.73 17 29.46 17 23 17 C22.0234375 13.97265625 21.046875 10.9453125 20.0703125 7.91796875 C19.08040347 4.86684198 19.08040347 4.86684198 17 2 C13.7530178 1.48099039 13.7530178 1.48099039 10.0625 1.5625 C8.81597656 1.54316406 7.56945312 1.52382813 6.28515625 1.50390625 C2.92039415 1.66992192 2.92039415 1.66992192 1.05859375 4.02734375 C0.70925781 4.67832031 0.35992187 5.32929688 0 6 C0 4.02 0 2.04 0 0 Z " fill="#B2ABB0" transform="translate(311,282)"/>
<path d="M0 0 C1.32 0.33 2.64 0.66 4 1 C2.34886481 8.39258257 0.37964731 15.20639425 -3 22 C-4.27171984 18.18484048 -3.27137096 16.73932636 -2 13 C-1.83142517 10.24934768 -1.83142517 10.24934768 -2 8 C-3.32 7.67 -4.64 7.34 -6 7 C-4.02 4.69 -2.04 2.38 0 0 Z " fill="#E28185" transform="translate(172,215)"/>
<path d="M0 0 C3.36591427 2.72478774 4.44226276 6.06856792 6 10 C10.95 10.33 15.9 10.66 21 11 C20.01 9.35 19.02 7.7 18 6 C18.3125 3.6875 18.3125 3.6875 19 2 C19.86949317 3.07107117 20.72014205 4.15745944 21.5625 5.25 C22.03816406 5.85328125 22.51382812 6.4565625 23.00390625 7.078125 C24 9 24 9 23 13 C17.06 13 11.12 13 5 13 C0 3.375 0 3.375 0 0 Z " fill="#BAB7B9" transform="translate(435,286)"/>
<path d="M0 0 C0.33 0.66 0.66 1.32 1 2 C0.505 2.928125 0.01 3.85625 -0.5 4.8125 C-2.20942454 8.44502716 -2.08757986 9.26950668 -1 13 C0.16729819 15.44649367 0.16729819 15.44649367 1.65234375 17.87109375 C2.18150391 18.77537109 2.71066406 19.67964844 3.25585938 20.61132812 C4.08827148 22.0102832 4.08827148 22.0102832 4.9375 23.4375 C11.57144882 34.61822545 11.57144882 34.61822545 13 40 C9.01432842 36.3579208 6.97294292 32.4247349 4.5625 27.65625 C2.98018816 24.96631987 1.21382671 23.17257528 -1 21 C-2.1875 17.875 -2.1875 17.875 -3 15 C-3.33 14.34 -3.66 13.68 -4 13 C-3.96161063 8.02857687 -3.66100646 3.66100646 0 0 Z " fill="#A09B9F" transform="translate(109,240)"/>
<path d="M0 0 C2.0245738 1.93254772 3.42105792 3.63158688 5 6 C4.67 7.32 4.34 8.64 4 10 C-4.25 10 -12.5 10 -21 10 C-21.33 8.68 -21.66 7.36 -22 6 C-21.01 6.495 -21.01 6.495 -20 7 C-18.3325394 7.08426094 -16.66174813 7.10725143 -14.9921875 7.09765625 C-14.00605469 7.09443359 -13.01992187 7.09121094 -12.00390625 7.08789062 C-10.45509766 7.07532227 -10.45509766 7.07532227 -8.875 7.0625 C-7.83472656 7.05798828 -6.79445313 7.05347656 -5.72265625 7.04882812 C-3.14838038 7.03701952 -0.57421854 7.02055075 2 7 C1.34 6.01 0.68 5.02 0 4 C0 2.68 0 1.36 0 0 Z " fill="#A19CA3" transform="translate(127,289)"/>
<path d="M0 0 C1.32 0 2.64 0 4 0 C4 1.98 4 3.96 4 6 C3.67 5.34 3.34 4.68 3 4 C2.34 4 1.68 4 1 4 C0.67 4.99 0.34 5.98 0 7 C-0.99 7 -1.98 7 -3 7 C-3.04125 7.680625 -3.0825 8.36125 -3.125 9.0625 C-4.36236707 13.21651802 -6.94028815 15.98374996 -10 19 C-10.33 19 -10.66 19 -11 19 C-11.54335445 15.27905372 -11.06480982 14.09162767 -8.84765625 10.95703125 C-7.93152535 9.8981267 -7.00265497 8.85013352 -6.0625 7.8125 C-2.68014816 4.15374728 -2.68014816 4.15374728 0 0 Z " fill="#ED403B" transform="translate(166,223)"/>
<path d="M0 0 C2.12819096 2.12819096 2.66976516 3.38451292 3.625 6.1875 C3.88539063 6.92355469 4.14578125 7.65960938 4.4140625 8.41796875 C5 11 5 11 5 18 C-0.28 18 -5.56 18 -11 18 C-11 17.34 -11 16.68 -11 16 C-4.565 15.505 -4.565 15.505 2 15 C1.67 13.2675 1.34 11.535 1 9.75 C0.3534064 6.35538361 0 3.47976503 0 0 Z " fill="#3F3B41" transform="translate(346,280)"/>
<path d="M0 0 C4.95 0.33 9.9 0.66 15 1 C15 1.99 15 2.98 15 4 C2.13 4 -10.74 4 -24 4 C-24 3.67 -24 3.34 -24 3 C-16.41 2.67 -8.82 2.34 -1 2 C-0.67 1.34 -0.34 0.68 0 0 Z " fill="#A9A2A1" transform="translate(437,313)"/>
<path d="M0 0 C1.32 0 2.64 0 4 0 C4 3.96 4 7.92 4 12 C2.35 12 0.7 12 -1 12 C-2.1875 9.375 -2.1875 9.375 -3 6 C-1.625 2.625 -1.625 2.625 0 0 Z " fill="#C5BDBD" transform="translate(78,318)"/>
<path d="M0 0 C0.33 0 0.66 0 1 0 C1.54775993 9.84446312 1.1280717 17.11149404 -5.375 24.8125 C-12.66019417 30.88349515 -12.66019417 30.88349515 -16.875 31.25 C-17.57625 31.1675 -18.2775 31.085 -19 31 C-17.11244927 29.50568901 -15.25675064 28.13668353 -13.12890625 27.00390625 C-7.23060807 23.78158456 -4.76632111 20.04316499 -2 14 C-1.67 13.34 -1.34 12.68 -1 12 C-0.77141886 9.9625237 -0.58975722 7.91959697 -0.4375 5.875 C-0.35371094 4.77929688 -0.26992187 3.68359375 -0.18359375 2.5546875 C-0.09271484 1.29011719 -0.09271484 1.29011719 0 0 Z " fill="#AEA7AE" transform="translate(254,268)"/>
<path d="M0 0 C1.31225809 3.93677426 0.3393954 5.7794262 -0.9375 9.6875 C-1.31777344 10.86699219 -1.69804687 12.04648437 -2.08984375 13.26171875 C-2.39019531 14.16535156 -2.69054687 15.06898438 -3 16 C-0.36 15.67 2.28 15.34 5 15 C4.67 13.35 4.34 11.7 4 10 C4.66 10.33 5.32 10.66 6 11 C6.40729228 13.32156597 6.74438677 15.6568787 7 18 C2.71 18 -1.58 18 -6 18 C-6 16.68 -6 15.36 -6 14 C-5.34 14 -4.68 14 -4 14 C-3.896875 12.80375 -3.79375 11.6075 -3.6875 10.375 C-3.21108648 6.4375824 -1.98869284 3.45859625 0 0 Z " fill="#9E999F" transform="translate(320,258)"/>
<path d="M0 0 C0.33 0.66 0.66 1.32 1 2 C0.67 2.99 0.34 3.98 0 5 C6.6 5 13.2 5 20 5 C20 5.66 20 6.32 20 7 C11.75 7 3.5 7 -5 7 C-3.38262276 3.76524552 -2.52370777 2.29427979 0 0 Z " fill="#E75150" transform="translate(137,259)"/>
<path d="M0 0 C1.98 0.495 1.98 0.495 4 1 C4 4.63 4 8.26 4 12 C2.35 12 0.7 12 -1 12 C-1.02687279 10.18757948 -1.04633715 8.37504767 -1.0625 6.5625 C-1.07410156 5.55316406 -1.08570313 4.54382813 -1.09765625 3.50390625 C-1 1 -1 1 0 0 Z " fill="#A69F9F" transform="translate(242,318)"/>
<path d="M0 0 C2.46800047 1.15173355 4.04783565 2.04783565 6 4 C6.46870977 8.96832355 6.20228723 12.1030017 3 16 C-0.06640625 16.59375 -0.06640625 16.59375 -3.5625 16.5 C-4.71878906 16.4896875 -5.87507812 16.479375 -7.06640625 16.46875 C-8.03449219 16.3140625 -9.00257813 16.159375 -10 16 C-10.66 15.01 -11.32 14.02 -12 13 C-11.32453125 13.09539062 -10.6490625 13.19078125 -9.953125 13.2890625 C-9.06109375 13.39992188 -8.1690625 13.51078125 -7.25 13.625 C-6.36828125 13.74101562 -5.4865625 13.85703125 -4.578125 13.9765625 C-1.71397007 14.00260027 -0.32614218 13.65402886 2 12 C3.14487832 7.95476326 3.42951635 5.87770731 1.5625 2.0625 C1.046875 1.381875 0.53125 0.70125 0 0 Z " fill="#8F8A90" transform="translate(228,273)"/>
<path d="M0 0 C9.58847302 2.9298112 19.40938816 6.20869058 24.9375 15.125 C26 18 26 18 25 21 C24.63648438 20.40832031 24.27296875 19.81664062 23.8984375 19.20703125 C17.42653308 9.03452507 11.27663728 5.93176522 0 2 C0 1.34 0 0.68 0 0 Z " fill="#B9B1B4" transform="translate(228,247)"/>
<path d="M0 0 C4.29 0 8.58 0 13 0 C11.91785492 6.49287046 10.83514003 8.08315381 7 13 C6.67 12.34 6.34 11.68 6 11 C6.99609375 8.8359375 6.99609375 8.8359375 8.4375 6.375 C8.91058594 5.55773437 9.38367188 4.74046875 9.87109375 3.8984375 C10.24363281 3.27195313 10.61617187 2.64546875 11 2 C7.7 2 4.4 2 1 2 C1 2.66 1 3.32 1 4 C0.34 4 -0.32 4 -1 4 C-0.67 2.68 -0.34 1.36 0 0 Z " fill="#A89EA2" transform="translate(108,220)"/>
<path d="M0 0 C0.99 0.33 1.98 0.66 3 1 C3 4.3 3 7.6 3 11 C3.99 11.33 4.98 11.66 6 12 C3.69 12 1.38 12 -1 12 C-1.02687279 10.18757948 -1.04633715 8.37504767 -1.0625 6.5625 C-1.07410156 5.55316406 -1.08570313 4.54382813 -1.09765625 3.50390625 C-1 1 -1 1 0 0 Z " fill="#ABA5A4" transform="translate(216,318)"/>
<path d="M0 0 C1.65 0.33 3.3 0.66 5 1 C4.67 1.99 4.34 2.98 4 4 C4 3.34 4 2.68 4 2 C3.01 2 2.02 2 1 2 C1 2.99 1 3.98 1 5 C1.99 5.33 2.98 5.66 4 6 C4 7.32 4 8.64 4 10 C3.01 10 2.02 10 1 10 C0.67 9.01 0.34 8.02 0 7 C-0.66 8.65 -1.32 10.3 -2 12 C-2.33 12 -2.66 12 -3 12 C-2.49202991 7.6822542 -1.80317221 3.96697886 0 0 Z " fill="#BFB8B7" transform="translate(377,318)"/>
<path d="M0 0 C0.66 0 1.32 0 2 0 C1.44894091 3.9492568 0.61064629 7.34920174 -1 11 C-3.97 11 -6.94 11 -10 11 C-9.67 8.36 -9.34 5.72 -9 3 C-8.67 3 -8.34 3 -8 3 C-8 4.98 -8 6.96 -8 9 C-6.02 9 -4.04 9 -2 9 C-1.34 6.03 -0.68 3.06 0 0 Z " fill="#A29BA2" transform="translate(309,288)"/>
<path d="M0 0 C0 0.66 0 1.32 0 2 C-1.4562545 2.67119549 -2.91507867 3.33681807 -4.375 4 C-5.59316406 4.556875 -5.59316406 4.556875 -6.8359375 5.125 C-9 6 -9 6 -11 6 C-10.72285156 6.55429687 -10.44570312 7.10859375 -10.16015625 7.6796875 C-8.7734375 10.453125 -7.38671875 13.2265625 -6 16 C-9.34163899 14.61725283 -11.25766748 13.20955991 -13 10 C-13.1875 7.5625 -13.1875 7.5625 -12 5 C-8.0769191 1.73670998 -5.16424865 0 0 0 Z " fill="#B3ACB0" transform="translate(211,277)"/>
<path d="M0 0 C0.33 0.99 0.66 1.98 1 3 C-1.71182212 5.60334924 -2.89133813 5.99456691 -6.75 6.1875 C-7.8225 6.125625 -8.895 6.06375 -10 6 C-9.7834375 6.55429687 -9.566875 7.10859375 -9.34375 7.6796875 C-9.0653125 8.40414063 -8.786875 9.12859375 -8.5 9.875 C-8.2215625 10.59429687 -7.943125 11.31359375 -7.65625 12.0546875 C-7 14 -7 14 -7 16 C-7.66 16 -8.32 16 -9 16 C-12 9.5 -12 9.5 -12 5 C-10.95199219 4.83564453 -10.95199219 4.83564453 -9.8828125 4.66796875 C-8.51769531 4.43013672 -8.51769531 4.43013672 -7.125 4.1875 C-5.76761719 3.96126953 -5.76761719 3.96126953 -4.3828125 3.73046875 C-1.65587522 3.16948699 -1.65587522 3.16948699 0 0 Z " fill="#ABA6AA" transform="translate(386,265)"/>
<path d="M0 0 C2.6875 -0.3125 2.6875 -0.3125 5 0 C2.64161442 5.26101398 0.26759591 6.89296164 -5 9 C-6.77277259 10.52007842 -6.77277259 10.52007842 -8 12 C-6.75023244 8.34683329 -6.32901247 7.21934164 -3 5 C-2.54625 4.13375 -2.0925 3.2675 -1.625 2.375 C-1.08875 1.59125 -0.5525 0.8075 0 0 Z " fill="#F48787" transform="translate(146,245)"/>
<path d="M0 0 C1.32 0 2.64 0 4 0 C3.67 3.96 3.34 7.92 3 12 C2.01 12 1.02 12 0 12 C0 8.04 0 4.08 0 0 Z " fill="#878185" transform="translate(67,318)"/>
<path d="M0 0 C0.66 0 1.32 0 2 0 C1.34 1.32 0.68 2.64 0 4 C-0.66 4 -1.32 4 -2 4 C-2 4.66 -2 5.32 -2 6 C-3.32 6.33 -4.64 6.66 -6 7 C-5.319375 8.093125 -4.63875 9.18625 -3.9375 10.3125 C-2.77734375 12.17578125 -2.77734375 12.17578125 -2 14 C-2.33 14.99 -2.66 15.98 -3 17 C-6 15 -6 15 -6.73046875 12.6171875 C-6.88128906 11.71226562 -7.03210938 10.80734375 -7.1875 9.875 C-7.34605469 8.96492188 -7.50460937 8.05484375 -7.66796875 7.1171875 C-7.83232422 6.06917969 -7.83232422 6.06917969 -8 5 C-6.865625 4.54625 -5.73125 4.0925 -4.5625 3.625 C-0.95278308 2.42904194 -0.95278308 2.42904194 0 0 Z " fill="#A19A9C" transform="translate(400,269)"/>
<path d="M0 0 C2.65354511 0.97296654 3.79877896 1.65792423 5.25 4.125 C6.5425024 9.07959253 6.82267661 13.24246361 4.625 17.9375 C3 20 3 20 1 21 C1.33 20.38125 1.66 19.7625 2 19.125 C3.38385227 14.80046167 3.6805446 10.50037558 3 6 C1.53750766 3.83951758 1.53750766 3.83951758 0 2 C0 1.34 0 0.68 0 0 Z " fill="#B4ADB1" transform="translate(453,250)"/>
<path d="M0 0 C0.94875 0.04125 1.8975 0.0825 2.875 0.125 C2.875 0.455 2.875 0.785 2.875 1.125 C1.225 1.455 -0.425 1.785 -2.125 2.125 C-2.125 3.775 -2.125 5.425 -2.125 7.125 C-0.805 7.785 0.515 8.445 1.875 9.125 C1.875 10.115 1.875 11.105 1.875 12.125 C-0.435 12.125 -2.745 12.125 -5.125 12.125 C-4.8465625 11.1659375 -4.8465625 11.1659375 -4.5625 10.1875 C-4.418125 9.506875 -4.27375 8.82625 -4.125 8.125 C-4.455 7.795 -4.785 7.465 -5.125 7.125 C-5.3125 4.6875 -5.3125 4.6875 -5.125 2.125 C-3.125 0.125 -3.125 0.125 0 0 Z " fill="#CDC5C5" transform="translate(409.125,317.875)"/>
<path d="M0 0 C0.66 0 1.32 0 2 0 C0.43230174 3.63536515 -1.79973288 6.25520388 -4.4375 9.1875 C-5.61119141 10.50814453 -5.61119141 10.50814453 -6.80859375 11.85546875 C-9 14 -9 14 -12 15 C-10.32598022 11.04322598 -7.86850715 8.15535787 -5 5 C-4.34 5 -3.68 5 -3 5 C-2.690625 4.360625 -2.38125 3.72125 -2.0625 3.0625 C-1 1 -1 1 0 0 Z " fill="#F5B2B0" transform="translate(183,257)"/>
<path d="M0 0 C0.92864118 3.43968692 1.22841931 6.42143083 1 10 C0.01 11.485 0.01 11.485 -1 13 C-1.66 13 -2.32 13 -3 13 C-3.33 14.65 -3.66 16.3 -4 18 C-4.33 18 -4.66 18 -5 18 C-4.51030705 11.38914524 -2.66557258 6.05022986 0 0 Z " fill="#827E80" transform="translate(312,257)"/>
<path d="M0 0 C0.66 0 1.32 0 2 0 C2.33 0.99 2.66 1.98 3 3 C3.99 2.34 4.98 1.68 6 1 C5.34 2.98 4.68 4.96 4 7 C3.34 7 2.68 7 2 7 C2 7.99 2 8.98 2 10 C0.68 10 -0.64 10 -2 10 C-1.34 6.7 -0.68 3.4 0 0 Z " fill="#706A69" transform="translate(134,320)"/>
<path d="M0 0 C0.92683594 0.00451172 1.85367188 0.00902344 2.80859375 0.01367188 C5.08079709 0.02538426 7.35286388 0.04178628 9.625 0.0625 C9.625 0.3925 9.625 0.7225 9.625 1.0625 C-0.77 1.5575 -0.77 1.5575 -11.375 2.0625 C-11.375 2.7225 -11.375 3.3825 -11.375 4.0625 C-13.355 4.0625 -15.335 4.0625 -17.375 4.0625 C-17.045 3.0725 -16.715 2.0825 -16.375 1.0625 C-10.89230931 -0.09414737 -5.57160726 -0.05166255 0 0 Z " fill="#FEEFEF" transform="translate(81.375,312.9375)"/>
<path d="M0 0 C6.07357603 5.20592231 9.70307902 12.10569836 11 20 C8.10067643 17.60490662 7.49831724 15.68754757 7 12 C6.34 12 5.68 12 5 12 C4.16180842 10.37750059 3.3295884 8.75191503 2.5 7.125 C2.0359375 6.22007812 1.571875 5.31515625 1.09375 4.3828125 C0 2 0 2 0 0 Z " fill="#A69FA2" transform="translate(94,275)"/>
<path d="M0 0 C2.25 2.5 2.25 2.5 4 5 C3.67 5.66 3.34 6.32 3 7 C1 5.625 1 5.625 -1 4 C-1 3.34 -1 2.68 -1 2 C-5.95696581 3.23924145 -8.11658466 4.78577758 -11 9 C-11.33 7.35 -11.66 5.7 -12 4 C-10.75539217 3.32332002 -9.50403104 2.65905281 -8.25 2 C-7.55390625 1.62875 -6.8578125 1.2575 -6.140625 0.875 C-4 0 -4 0 0 0 Z " fill="#524C51" transform="translate(212,279)"/>
<path d="M0 0 C0 7.63201535 -5.89605415 15.59582204 -11 21 C-11 17.16943577 -9.71023115 15.46141547 -7.75 12.1875 C-6.79673828 10.59228516 -6.79673828 10.59228516 -5.82421875 8.96484375 C-3.95125968 5.92078394 -2.03829698 2.93514765 0 0 Z " fill="#B9B1B5" transform="translate(104,227)"/>
<path d="M0 0 C1.875 0.1875 1.875 0.1875 4 1 C5.25 3.5625 5.25 3.5625 6 6 C5.34 6 4.68 6 4 6 C4 7.98 4 9.96 4 12 C0.46209597 8.30827405 0.40884117 4.90609405 0 0 Z " fill="#C1BAB9" transform="translate(434,318)"/>
<path d="M0 0 C4.15418578 2.07709289 5.90595028 8.00125613 8 12 C8.3609375 12.65742188 8.721875 13.31484375 9.09375 13.9921875 C9.9375 15.5625 9.9375 15.5625 11 18 C10.67 18.66 10.34 19.32 10 20 C5.45463305 13.93951073 0.96286267 7.70290139 0 0 Z " fill="#B7B2B6" transform="translate(111,260)"/>
<path d="M0 0 C0 0.33 0 0.66 0 1 C-4.455 1.495 -4.455 1.495 -9 2 C-11.70844881 7.73290915 -11.70844881 7.73290915 -12 14 C-12.66 14 -13.32 14 -14 14 C-14.60736196 5.1595092 -14.60736196 5.1595092 -12.625 1.375 C-8.54427097 -0.76252473 -4.51359846 -0.31009455 0 0 Z " fill="#77747B" transform="translate(234,229)"/>
<path d="M0 0 C0.99 0 1.98 0 3 0 C3 1.65 3 3.3 3 5 C4.32 5.33 5.64 5.66 7 6 C5.68 6 4.36 6 3 6 C3 7.32 3 8.64 3 10 C2.01 10 1.02 10 0 10 C0 6.7 0 3.4 0 0 Z " fill="#777170" transform="translate(163,320)"/>
<path d="M0 0 C0.96218772 3.14897798 1.04930303 5.72762019 0.75 9 C0.68296875 9.845625 0.6159375 10.69125 0.546875 11.5625 C-0.08548961 14.38103941 -1.03600335 15.89988477 -3 18 C-3.66 18 -4.32 18 -5 18 C-5.33 18.99 -5.66 19.98 -6 21 C-6 19.68 -6 18.36 -6 17 C-5.34 17 -4.68 17 -4 17 C-3.87882813 16.19175781 -3.75765625 15.38351562 -3.6328125 14.55078125 C-3.46523437 13.48214844 -3.29765625 12.41351563 -3.125 11.3125 C-2.96257812 10.25675781 -2.80015625 9.20101563 -2.6328125 8.11328125 C-2.04106931 5.20205086 -1.1968194 2.71044393 0 0 Z " fill="#EA443E" transform="translate(157,266)"/>
<path d="M0 0 C4.28912434 1.42970811 6.53098802 4.27688669 9 8 C9.375 10.9375 9.375 10.9375 9 13 C7.02 13.99 7.02 13.99 5 15 C5.433125 13.7315625 5.433125 13.7315625 5.875 12.4375 C6.01895712 8.47867924 5.58468945 8.0675278 3.0625 5.25 C2.49660156 4.67765625 1.93070313 4.1053125 1.34765625 3.515625 C0 2 0 2 0 0 Z " fill="#BEB5B5" transform="translate(244,223)"/>
<path d="M0 0 C2 1.625 2 1.625 4 4 C4 5.98 4 7.96 4 10 C-1.28 10 -6.56 10 -12 10 C-12 9.67 -12 9.34 -12 9 C-7.05 9 -2.1 9 3 9 C2.01 7.35 1.02 5.7 0 4 C0 2.68 0 1.36 0 0 Z " fill="#7D7D80" transform="translate(453,288)"/>
<path d="M0 0 C2.30142435 1.78174788 3.80034391 3.16304165 4.48828125 6.046875 C4.72323102 8.0246611 4.86751458 10.01271872 5 12 C0.05 12 -4.9 12 -10 12 C-10 11.67 -10 11.34 -10 11 C-4.06 10.505 -4.06 10.505 2 10 C1.54177532 6.53058454 1.10868317 3.32604951 0 0 Z " fill="#7D777D" transform="translate(398,286)"/>
<path d="M0 0 C4.95 0.33 9.9 0.66 15 1 C15 1.99 15 2.98 15 4 C13.02 4 11.04 4 9 4 C9 3.34 9 2.68 9 2 C5.7 2 2.4 2 -1 2 C-0.67 1.34 -0.34 0.68 0 0 Z " fill="#C9C2C2" transform="translate(437,313)"/>
<path d="M0 0 C0.66 0 1.32 0 2 0 C0.47291037 3.43595166 -1.59927045 6.11912454 -4 9 C-0.37 9 3.26 9 7 9 C2.01222852 11.49388574 0.33016752 10.88836125 -5 10 C-4.49890042 5.61537866 -3.01704885 3.1999003 0 0 Z " fill="#F5C5C2" transform="translate(136,257)"/>
<path d="M0 0 C3.16115776 1.36983503 3.9927092 1.9890638 6 5 C6.37167184 7.76020996 6.17850636 10.18852476 6 13 C5.34 13.66 4.68 14.32 4 15 C3.96261719 14.41992188 3.92523438 13.83984375 3.88671875 13.2421875 C3.46096333 8.18321136 2.62861009 4.45720842 0 0 Z " fill="#8D888E" transform="translate(383,252)"/>
<path d="M0 0 C0.33 0.66 0.66 1.32 1 2 C3.01669827 3.13350534 3.01669827 3.13350534 5 4 C3.3545622 5.68762851 1.68711423 7.3540349 0 9 C-0.33 9 -0.66 9 -1 9 C-1.125 2.25 -1.125 2.25 0 0 Z " fill="#E83F47" transform="translate(150,287)"/>
<path d="M0 0 C2.97 0.495 2.97 0.495 6 1 C6 1.66 6 2.32 6 3 C6.99 3 7.98 3 9 3 C9 3.66 9 4.32 9 5 C10.32 5.66 11.64 6.32 13 7 C8.44894625 6.45820789 4.93613994 5.37999159 1 3 C0.67 2.01 0.34 1.02 0 0 Z " fill="#9C979B" transform="translate(210,263)"/>
<path d="M0 0 C0.33 0 0.66 0 1 0 C1.27771418 4.67948398 0.54837397 7.67583336 -1.5 11.875 C-1.9640625 12.84179688 -2.428125 13.80859375 -2.90625 14.8046875 C-3.2671875 15.52914062 -3.628125 16.25359375 -4 17 C-5 14 -5 14 -4.1875 12.25 C-3.795625 11.5075 -3.40375 10.765 -3 10 C-2.30643577 7.67451993 -1.63850788 5.34119555 -1 3 C-0.67 2.01 -0.34 1.02 0 0 Z " fill="#F8BBBF" transform="translate(173,220)"/>
<path d="M0 0 C0.99 0 1.98 0 3 0 C3 3.3 3 6.6 3 10 C2.01 10 1.02 10 0 10 C0 6.7 0 3.4 0 0 Z " fill="#666060" transform="translate(78,320)"/>
<path d="M0 0 C2 1 2 1 3.1875 3.375 C4 6 4 6 3 9 C1 8 -1 7 -3 6 C-2.67 5.01 -2.34 4.02 -2 3 C-1.34 3 -0.68 3 0 3 C0 2.01 0 1.02 0 0 Z " fill="#B4AEAE" transform="translate(109,320)"/>
<path d="M0 0 C2.475 0.99 2.475 0.99 5 2 C4.67 2.99 4.34 3.98 4 5 C3.34 5 2.68 5 2 5 C2 5.66 2 6.32 2 7 C2.99 7.33 3.98 7.66 5 8 C3.02 8 1.04 8 -1 8 C-1 6.68 -1 5.36 -1 4 C0.32 4 1.64 4 3 4 C3 3.34 3 2.68 3 2 C2.01 2 1.02 2 0 2 C0 1.34 0 0.68 0 0 Z " fill="#D9D1D1" transform="translate(349,322)"/>
<path d="M0 0 C-0.47202486 4.24822374 -2.96655518 6.19989709 -6 9 C-6.66 8.01 -7.32 7.02 -8 6 C-6.68 5.67 -5.36 5.34 -4 5 C-4.33 3.68 -4.66 2.36 -5 1 C-2 0 -2 0 0 0 Z " fill="#E74548" transform="translate(187,251)"/>
<path d="M0 0 C0.33 0 0.66 0 1 0 C2.3442623 5.37704918 2.3442623 5.37704918 0.6875 8.375 C-1 10 -1 10 -3 10 C-2.67 7.69 -2.34 5.38 -2 3 C-1.34 3 -0.68 3 0 3 C0 2.01 0 1.02 0 0 Z " fill="#D08689" transform="translate(148,291)"/>
<path d="M0 0 C0.99 0.33 1.98 0.66 3 1 C2.46890625 1.37511719 1.9378125 1.75023437 1.390625 2.13671875 C-2.68773728 5.09129873 -6.06192 7.83771999 -9 12 C-8.40503246 8.67258892 -7.29522827 6.82909592 -5.0625 4.3125 C-4.53785156 3.71050781 -4.01320312 3.10851562 -3.47265625 2.48828125 C-2 1 -2 1 0 0 Z " fill="#B7B4B6" transform="translate(211,221)"/>
<path d="M0 0 C0.66 0 1.32 0 2 0 C2.33 3.3 2.66 6.6 3 10 C2.01 10 1.02 10 0 10 C0 6.7 0 3.4 0 0 Z " fill="#75706F" transform="translate(266,320)"/>
<path d="M0 0 C0.99 0.33 1.98 0.66 3 1 C2.67 2.32 2.34 3.64 2 5 C3.32 5.33 4.64 5.66 6 6 C4.68 6 3.36 6 2 6 C2 7.32 2 8.64 2 10 C1.34 10 0.68 10 0 10 C0 6.7 0 3.4 0 0 Z " fill="#6B6665" transform="translate(346,320)"/>
<path d="M0 0 C0.66 0 1.32 0 2 0 C1.79375 0.78375 1.5875 1.5675 1.375 2.375 C1.25125 3.24125 1.1275 4.1075 1 5 C1.66 5.66 2.32 6.32 3 7 C2.625 9.125 2.625 9.125 2 11 C1.7525 10.38125 1.505 9.7625 1.25 9.125 C-0.20628639 6.64931313 -1.37812506 6.04874998 -4 5 C-4 4.34 -4 3.68 -4 3 C-2.35 3 -0.7 3 1 3 C0.67 2.01 0.34 1.02 0 0 Z " fill="#D2C9C8" transform="translate(412,319)"/>
<path d="M0 0 C2.1755306 2.1755306 2.71879553 3.55973892 3.6875 6.4375 C3.95949219 7.21996094 4.23148437 8.00242187 4.51171875 8.80859375 C5 11 5 11 4 14 C3.32471777 12.42032193 2.66010306 10.83608097 2 9.25 C1.62875 8.36828125 1.2575 7.4865625 0.875 6.578125 C0 4 0 4 0 0 Z " fill="#B2ABAC" transform="translate(346,280)"/>
<path d="M0 0 C5.02254631 -0.2954439 7.89542386 0.01485372 12 3 C11.67 3.66 11.34 4.32 11 5 C7.37 3.68 3.74 2.36 0 1 C0 0.67 0 0.34 0 0 Z " fill="#AEA5A9" transform="translate(441,245)"/>
<path d="M0 0 C1.65 0 3.3 0 5 0 C4.34 1.98 3.68 3.96 3 6 C2.67 5.34 2.34 4.68 2 4 C1.01 3.67 0.02 3.34 -1 3 C-0.67 2.01 -0.34 1.02 0 0 Z " fill="#0B090E" transform="translate(113,223)"/>
<path d="M0 0 C1.2065625 0.0309375 1.2065625 0.0309375 2.4375 0.0625 C2.7675 1.0525 3.0975 2.0425 3.4375 3.0625 C1.7875 3.0625 0.1375 3.0625 -1.5625 3.0625 C-1.8925 3.7225 -2.2225 4.3825 -2.5625 5.0625 C-3.125 3.125 -3.125 3.125 -3.5625 1.0625 C-2.5625 0.0625 -2.5625 0.0625 0 0 Z " fill="#928B8B" transform="translate(409.5625,318.9375)"/>
<path d="M0 0 C0.66 0.33 1.32 0.66 2 1 C0.75 2.5 0.75 2.5 -1 4 C-2.32 4 -3.64 4 -5 4 C-4.67 5.32 -4.34 6.64 -4 8 C-4.66 8 -5.32 8 -6 8 C-6 6.35 -6 4.7 -6 3 C-4.03533587 1.93224776 -2.03144641 0.93446535 0 0 Z " fill="#9A949C" transform="translate(452,271)"/>
<path d="M0 0 C2 2 2 2 2.125 5.125 C2.08375 6.07375 2.0425 7.0225 2 8 C1.34 8 0.68 8 0 8 C0 7.34 0 6.68 0 6 C-0.66 6 -1.32 6 -2 6 C-1.34 4.02 -0.68 2.04 0 0 Z " fill="#07060A" transform="translate(313,264)"/>
<path d="M0 0 C2.31 0 4.62 0 7 0 C6.01 0.495 6.01 0.495 5 1 C5 1.66 5 2.32 5 3 C3.02 3 1.04 3 -1 3 C-0.67 2.01 -0.34 1.02 0 0 Z " fill="#DCD0D0" transform="translate(65,314)"/>
<path d="M0 0 C0.99 0.33 1.98 0.66 3 1 C0.6875 3.5 0.6875 3.5 -2 6 C-2.99 6 -3.98 6 -5 6 C-4.67 4.68 -4.34 3.36 -4 2 C-4 2.66 -4 3.32 -4 4 C-2.68 2.68 -1.36 1.36 0 0 Z " fill="#EDCCD1" transform="translate(149,297)"/>
<path d="M0 0 C3.2542015 2.83430453 4.5206753 4.68607774 5 9 C2.5 6.75 2.5 6.75 0 4 C0 2.68 0 1.36 0 0 Z " fill="#9F99A3" transform="translate(448,279)"/>
<path d="M0 0 C1.32 0 2.64 0 4 0 C3.625 2.4375 3.625 2.4375 3 5 C2.01 5.495 2.01 5.495 1 6 C1 5.01 1 4.02 1 3 C0.01 3.495 0.01 3.495 -1 4 C-0.67 2.68 -0.34 1.36 0 0 Z " fill="#D1CBCB" transform="translate(441,318)"/>
<path d="M0 0 C0.33 0.66 0.66 1.32 1 2 C0.67 2.99 0.34 3.98 0 5 C-0.66 5 -1.32 5 -2 5 C-2 5.66 -2 6.32 -2 7 C-3.32 7.33 -4.64 7.66 -6 8 C-4.02 5.36 -2.04 2.72 0 0 Z " fill="#E95852" transform="translate(161,230)"/>
<path d="M0 0 C0.66 0.33 1.32 0.66 2 1 C2 1.99 2 2.98 2 4 C3.32 4.33 4.64 4.66 6 5 C3.69 5.33 1.38 5.66 -1 6 C-0.67 4.02 -0.34 2.04 0 0 Z " fill="#787271" transform="translate(376,324)"/>
<path d="M0 0 C1.60031344 3.20062687 0.03173691 5.72271806 -1 9 C-1.66 9 -2.32 9 -3 9 C-2.44271087 5.65626525 -1.64826111 2.96687001 0 0 Z " fill="#A8A5A9" transform="translate(306,275)"/>
</svg>
